<?xml version="1.0" standalone="no"?>
<!DOCTYPE svg PUBLIC "-//W3C//DTD SVG 20010904//EN"
 "http://www.w3.org/TR/2001/REC-SVG-20010904/DTD/svg10.dtd">
<svg version="1.0" xmlns="http://www.w3.org/2000/svg"
 width="512.000000pt" height="512.000000pt" viewBox="0 0 512.000000 512.000000"
 preserveAspectRatio="xMidYMid meet">
<metadata>
Created by potrace 1.11, written by Peter Selinger 2001-2013
</metadata>
<g transform="translate(0.000000,512.000000) scale(0.100000,-0.100000)"
fill="#000000" stroke="none">
<path d="M4342 4948 c-16 -16 -15 -32 3 -102 25 -94 64 -163 127 -221 67 -63
93 -74 117 -51 28 29 21 141 -14 211 -37 77 -99 138 -160 158 -58 20 -58 20
-73 5z"/>
<path d="M3217 4858 c-9 -7 -30 -42 -47 -78 -17 -36 -39 -81 -50 -100 -11 -19
-20 -43 -20 -53 0 -18 108 -202 378 -644 61 -100 125 -209 141 -241 17 -33 46
-76 65 -97 35 -37 37 -38 93 -31 32 3 83 9 113 12 30 3 63 7 72 10 18 5 120
153 138 199 9 24 5 36 -28 94 -23 41 -45 67 -57 69 -11 1 -78 -32 -148 -74
-70 -42 -129 -75 -131 -73 -4 6 -315 530 -365 617 -24 41 -41 75 -39 76 1 1
21 13 43 26 107 62 215 134 215 142 0 19 -49 105 -75 131 -27 27 -30 27 -154
27 -86 0 -133 -4 -144 -12z"/>
<path d="M4065 4798 c-50 -35 -214 -136 -462 -282 -24 -14 -43 -31 -43 -38 0
-7 51 -96 113 -198 94 -155 116 -185 137 -188 18 -2 52 14 105 49 44 29 170
107 279 174 110 66 201 126 204 133 2 6 -25 42 -61 79 -78 84 -112 140 -141
235 -28 93 -45 98 -131 36z"/>
<path d="M2415 4649 c-170 -4 -431 -8 -580 -10 -148 -2 -328 -6 -400 -9 l-130
-5 2 -30 c1 -16 11 -61 22 -100 37 -128 25 -285 -31 -429 -34 -86 -41 -87
-145 -39 -114 53 -125 56 -338 93 l-180 31 -17 -22 c-11 -13 -18 -38 -18 -66
0 -24 -11 -171 -25 -326 -13 -155 -29 -365 -35 -467 -11 -198 -16 -1113 -6
-1128 3 -6 7 -61 7 -123 1 -71 6 -117 13 -121 8 -6 7 -8 -1 -8 -9 0 -13 -16
-13 -47 0 -34 3 -44 10 -33 13 21 22 7 14 -25 -5 -20 -9 -23 -15 -13 -6 9 -9
7 -9 -9 0 -14 6 -23 15 -23 8 0 15 9 15 21 0 11 4 18 9 15 4 -3 6 6 3 19 -2
15 0 25 7 25 7 0 9 6 5 13 -5 9 -4 9 6 0 7 -6 18 -10 24 -9 6 1 1 -2 -11 -8
-13 -5 -23 -16 -23 -24 0 -7 4 -11 9 -7 5 3 13 0 17 -6 4 -7 3 -9 -3 -6 -6 4
-13 -7 -16 -26 -6 -44 -2 -45 19 -5 9 18 18 34 19 36 1 1 14 -3 28 -9 19 -9
24 -16 18 -27 -9 -17 15 -52 36 -52 17 0 17 30 1 31 -7 0 -3 4 9 9 13 5 23 14
23 20 0 6 5 8 11 4 8 -5 8 -8 0 -14 -7 -4 -18 -30 -26 -58 -11 -44 -11 -52 1
-52 8 0 11 6 8 15 -11 26 3 43 30 38 23 -5 24 -7 10 -21 -14 -13 -17 -13 -25
-1 -7 10 -8 5 -3 -13 5 -23 3 -28 -12 -28 -16 0 -16 -2 -5 -9 11 -7 21 -1 39
22 l23 32 -7 -30 c-4 -16 -11 -31 -16 -33 -4 -2 -8 -7 -8 -12 0 -13 44 1 58
19 12 14 13 13 10 -9 -3 -21 1 -25 25 -25 15 1 27 -4 27 -11 0 -20 39 -24 50
-6 5 10 9 13 10 7 0 -21 -17 -35 -36 -29 -16 5 -16 4 -4 -5 13 -9 13 -11 0
-11 -12 0 -13 -2 -1 -9 11 -7 11 -9 0 -13 -7 -2 11 -4 39 -3 29 1 52 -3 52 -8
0 -4 4 -5 10 -2 12 7 9 -37 -3 -46 -5 -3 4 -6 20 -5 22 1 28 6 28 24 0 21 -1
21 -13 5 -13 -17 -14 -17 -10 2 2 14 11 20 31 20 16 1 27 -4 27 -12 0 -7 5
-13 11 -13 7 0 1 -10 -13 -23 -13 -12 -23 -28 -20 -35 2 -7 15 1 30 21 16 20
34 31 44 29 10 -2 18 1 18 5 0 5 7 18 15 29 14 17 14 17 3 -11 -6 -16 -15 -34
-20 -39 -17 -21 -7 -28 32 -22 33 5 39 4 33 -10 -3 -10 -8 -12 -12 -5 -4 7
-12 3 -21 -9 -10 -15 -17 -17 -27 -8 -11 8 -12 7 -7 -6 7 -18 16 -20 30 -7 9
10 36 14 69 12 17 -1 18 -3 5 -12 -11 -8 -12 -12 -2 -16 6 -2 10 -9 6 -14 -3
-5 0 -9 5 -9 6 0 11 9 11 21 0 15 4 19 16 15 9 -3 23 -6 32 -7 13 0 13 -2 -3
-8 -12 -5 -23 -4 -28 3 -6 7 -7 6 -4 -4 2 -9 14 -14 28 -13 13 1 18 -1 12 -3
-7 -3 -12 -15 -12 -27 1 -16 2 -18 6 -5 2 10 10 15 19 11 7 -3 11 -10 7 -16
-3 -5 -1 -7 5 -3 5 3 13 0 16 -6 3 -7 3 -2 0 11 -4 14 -1 27 7 32 22 14 39 10
32 -7 -5 -13 -7 -13 -14 -2 -6 9 -9 5 -9 -13 0 -16 -9 -33 -22 -42 -17 -12
-19 -16 -7 -16 8 -1 21 5 27 11 7 7 17 14 22 14 6 1 15 2 21 3 5 0 8 5 4 10
-3 5 -1 12 5 16 19 11 50 14 55 4 4 -5 11 -7 16 -4 5 4 9 2 9 -3 0 -6 -19 -9
-42 -7 -24 2 -37 1 -31 -2 10 -3 10 -10 2 -25 -9 -16 -8 -19 2 -13 9 6 11 3 6
-9 -4 -10 -3 -15 4 -11 5 4 7 15 4 26 -5 14 -2 19 14 19 11 0 23 -5 26 -10 5
-8 11 -7 21 1 12 10 13 9 8 -5 -3 -9 -12 -16 -20 -16 -17 0 -54 -31 -54 -45 0
-7 3 -7 8 0 4 6 23 18 44 27 36 17 36 17 42 -8 4 -14 4 -29 1 -34 -3 -4 4 -6
15 -3 11 3 20 11 20 18 0 8 16 14 40 17 22 2 40 0 40 -4 0 -5 -4 -8 -8 -8 -4
0 -9 -15 -10 -32 -3 -31 -2 -32 12 -13 9 11 16 26 16 33 0 7 4 11 9 8 9 -6 7
-48 -4 -65 -7 -12 14 -14 31 -3 17 11 36 51 29 62 -3 6 -1 10 4 10 16 0 13
-42 -4 -64 -8 -11 -15 -23 -15 -27 0 -11 34 -5 49 9 11 10 15 10 25 -4 12 -15
13 -15 13 0 0 9 -4 16 -9 16 -4 0 -8 9 -8 20 0 11 4 20 10 20 5 0 7 -6 4 -13
-6 -15 25 -15 88 1 27 7 38 6 42 -3 3 -8 -5 -11 -26 -9 -35 4 -58 -10 -57 -35
0 -10 2 -11 6 -3 2 6 11 12 18 12 7 0 16 -6 18 -12 3 -8 6 -6 6 5 1 19 16 23
27 5 4 -7 3 -8 -4 -4 -7 4 -12 2 -12 -3 0 -21 26 -11 36 13 8 23 10 23 24 8
13 -14 12 -15 -3 -9 -9 3 -17 3 -17 -2 0 -11 31 -18 87 -20 32 -1 42 2 46 16
4 15 5 15 6 1 1 -18 41 -14 42 6 0 6 4 2 9 -9 6 -13 9 -15 9 -5 1 8 11 21 24
29 21 13 22 13 5 -6 -27 -29 -23 -33 32 -33 28 0 50 5 50 10 0 6 5 10 11 10 5
0 7 -4 4 -10 -3 -5 3 -10 14 -10 11 0 22 8 24 18 4 15 5 15 6 0 1 -15 26 -16
266 -16 172 0 265 4 265 10 0 7 4 7 13 0 18 -15 96 -10 107 8 8 13 10 12 10
-2 0 -21 4 -22 32 -7 14 7 18 8 14 0 -5 -7 14 -9 58 -8 35 1 59 5 52 9 -8 6
-7 8 2 8 7 0 10 5 7 10 -3 6 -2 10 4 10 5 0 12 -8 14 -18 4 -16 5 -16 6 0 1
11 6 15 16 12 8 -4 15 -1 15 6 0 7 6 10 14 7 21 -8 89 19 96 39 4 11 9 14 13
7 9 -15 -19 -43 -43 -43 -10 0 -22 -5 -26 -11 -3 -6 -15 -9 -25 -6 -11 3 -19
1 -19 -4 0 -5 -7 -9 -15 -9 -8 0 -15 -3 -15 -7 0 -5 15 -8 34 -8 19 0 32 3 29
7 -2 5 1 8 6 8 6 0 11 -4 11 -8 0 -4 10 -8 23 -9 l22 -1 -22 10 c-13 6 -23 15
-23 20 0 13 18 10 23 -4 3 -9 10 -7 22 7 12 14 15 15 12 4 -4 -13 2 -13 39 5
25 11 43 25 40 32 -7 18 5 25 20 13 10 -8 11 -16 3 -30 -5 -11 -14 -17 -18
-14 -5 3 -11 -1 -14 -9 -7 -16 34 -9 45 8 5 7 8 3 8 -9 1 -18 1 -19 11 -2 5 9
17 17 25 17 14 0 14 2 0 16 -9 8 -16 23 -16 32 1 14 3 13 13 -4 7 -12 18 -19
25 -17 17 6 36 43 22 43 -5 0 -10 -7 -10 -15 0 -8 -5 -15 -11 -15 -15 0 -6 21
14 34 13 8 20 7 27 -4 13 -20 12 -33 -1 -24 -7 4 -10 2 -8 -5 6 -18 24 -9 23
12 0 9 3 17 8 17 4 0 8 12 8 28 1 23 2 24 11 10 7 -12 6 -24 -1 -38 -6 -12 -9
-26 -6 -33 2 -7 5 -4 5 6 1 11 10 17 29 18 16 1 20 3 10 6 -24 6 -23 30 2 38
11 3 20 10 20 15 0 5 7 7 15 4 10 -4 15 0 15 12 0 16 2 17 10 4 7 -10 9 2 5
40 -2 30 -9 147 -15 260 -6 113 -12 237 -15 275 -2 39 -7 219 -10 400 -3 182
-7 418 -9 525 -2 107 1 267 7 355 16 243 13 273 -27 294 -14 8 -39 41 -57 75
-45 86 -88 146 -103 146 -7 0 -140 -76 -297 -170 -156 -93 -303 -180 -326
-194 -24 -14 -43 -33 -43 -42 0 -10 12 -37 26 -61 14 -25 24 -46 22 -48 -7 -6
-135 -75 -140 -75 -3 0 -9 11 -12 24 -3 13 -66 113 -139 222 -73 110 -172 262
-220 339 -49 77 -110 172 -137 210 -54 77 -72 125 -47 125 8 0 38 15 66 34
l51 35 35 -55 c38 -60 64 -68 106 -36 24 19 453 279 558 339 31 17 61 39 66
47 11 18 12 15 -74 156 -28 46 -51 91 -50 100 4 40 2 41 -93 38 -51 -2 -232
-6 -403 -9z m-605 -987 l0 -79 -67 -7 c-38 -3 -238 -9 -446 -12 l-378 -7 3 84
3 84 224 5 c123 3 323 6 443 8 l218 3 0 -79z m1453 -782 c-1 -36 -2 -72 -2
-80 -1 -14 -53 -16 -423 -19 -233 -1 -445 -4 -473 -6 -27 -1 -362 -6 -742 -10
l-693 -8 0 81 c0 44 3 83 8 85 4 3 356 8 782 12 426 4 776 8 777 9 2 2 175 2
385 2 l382 -1 -1 -65z m4 -422 c-2 -75 -4 -83 -22 -84 -11 -1 -284 -4 -606 -8
-563 -7 -586 -7 -591 11 -5 21 -11 143 -6 143 2 1 192 4 423 7 231 3 422 7
424 9 2 2 89 4 192 4 l188 0 -2 -82z m-1457 -23 l0 -85 -445 0 -445 0 0 85 0
85 445 0 445 0 0 -85z m1458 -337 l-3 -83 -301 -3 -302 -2 -6 22 c-3 13 -6 49
-6 80 l0 57 68 3 c37 2 176 5 310 6 l243 3 -3 -83z m-848 -11 l0 -83 -687 -14
c-379 -8 -713 -14 -743 -15 l-55 0 -3 79 c-2 55 1 82 10 87 7 4 123 9 258 10
135 1 378 5 540 8 162 4 382 8 488 9 l192 2 0 -83z m-1840 -229 c0 -4 -7 -8
-15 -8 -8 0 -15 4 -15 8 0 5 7 9 15 9 8 0 15 -4 15 -9z m90 -69 c0 -6 -4 -7
-10 -4 -5 3 -10 11 -10 16 0 6 5 7 10 4 6 -3 10 -11 10 -16z m30 -9 c0 -5 -5
-10 -11 -10 -5 0 -7 5 -4 10 3 6 8 10 11 10 2 0 4 -4 4 -10z m190 -104 c0 -3
-4 -8 -10 -11 -5 -3 -10 -1 -10 4 0 6 5 11 10 11 6 0 10 -2 10 -4z m-70 -51
c-6 -15 -13 -25 -17 -22 -3 4 0 21 8 38 16 39 24 24 9 -16z m101 -5 c-13 -11
-31 -20 -41 -20 -10 0 -21 -6 -23 -12 -3 -7 -6 -3 -6 8 -1 23 20 37 43 28 8
-3 17 -1 21 5 3 6 12 11 18 11 7 -1 1 -10 -12 -20z m2369 -65 l0 -85 -167 -1
c-93 -1 -186 -2 -208 -3 -43 -3 -738 -20 -820 -21 l-50 0 -3 81 c-2 71 -1 82
15 86 10 3 101 6 203 8 102 1 295 6 430 9 135 4 325 8 423 9 l177 3 0 -86z
m-2297 50 c-3 -9 -8 -14 -10 -11 -3 3 -2 9 2 15 9 16 15 13 8 -4z m69 -60 c-6
-34 -13 -32 -10 4 1 16 5 28 9 26 3 -3 4 -16 1 -30z m-135 19 c-3 -3 -12 -4
-19 -1 -8 3 -5 6 6 6 11 1 17 -2 13 -5z m88 -14 c18 0 23 -5 22 -20 -1 -11 -4
-20 -7 -21 -10 -2 -56 -2 -85 0 l-30 3 28 8 c15 5 39 7 52 4 13 -2 26 0 29 5
3 5 -6 9 -20 9 -14 0 -31 5 -37 12 -10 10 -8 12 6 6 10 -3 29 -6 42 -6z m130
-60 c-3 -5 -14 -10 -23 -9 -14 0 -13 2 3 9 27 11 27 11 20 0z m79 -42 c-5 -8
-2 -9 10 -5 10 4 15 3 11 -3 -7 -12 -35 -13 -35 -2 0 9 10 22 17 22 2 0 1 -5
-3 -12z m103 -44 c-3 -3 -12 -4 -19 -1 -8 3 -5 6 6 6 11 1 17 -2 13 -5z m2340
-10 c-3 -3 -12 -4 -19 -1 -8 3 -5 6 6 6 11 1 17 -2 13 -5z m-2208 -27 c0 -9
-2 -8 -6 1 -2 6 -10 9 -15 6 -7 -4 -8 -2 -4 5 9 13 26 5 25 -12z m-95 -12 c-4
-8 -8 -15 -10 -15 -2 0 -4 7 -4 15 0 8 4 15 10 15 5 0 7 -7 4 -15z m2253 -1
c-3 -3 -12 -4 -19 -1 -8 3 -5 6 6 6 11 1 17 -2 13 -5z m63 -8 c0 -2 -7 -7 -16
-10 -8 -3 -12 -2 -9 4 6 10 25 14 25 6z m-2225 -16 c-3 -5 -12 -10 -18 -10 -7
0 -6 4 3 10 19 12 23 12 15 0z m2065 -30 c0 -5 -5 -10 -11 -10 -5 0 -7 5 -4
10 3 6 8 10 11 10 2 0 4 -4 4 -10z m-1807 -15 c-3 -9 -8 -14 -10 -11 -3 3 -2
9 2 15 9 16 15 13 8 -4z m1901 0 c-4 -8 -8 -15 -10 -15 -2 0 -4 7 -4 15 0 8 4
15 10 15 5 0 7 -7 4 -15z m-2027 -56 c-8 -19 -14 -24 -19 -16 -4 7 -3 14 2 15
6 2 10 16 10 30 0 19 3 23 9 13 5 -7 4 -25 -2 -42z m58 35 c-11 -8 -19 -20
-17 -25 1 -5 -2 -9 -8 -9 -19 0 -10 27 13 38 31 15 35 14 12 -4z m1790 6 c3
-5 1 -10 -4 -10 -6 0 -11 5 -11 10 0 6 2 10 4 10 3 0 8 -4 11 -10z m-32 -15
c-3 -9 -8 -14 -10 -11 -3 3 -2 9 2 15 9 16 15 13 8 -4z m110 -3 c-13 -2 -23
-8 -23 -13 0 -5 -5 -9 -12 -9 -6 0 -4 8 6 19 11 12 24 17 34 13 14 -6 13 -7
-5 -10z m-1761 -24 c-8 -8 -9 -4 -5 13 4 13 8 18 11 10 2 -7 -1 -18 -6 -23z
m1487 -19 c-12 -7 -12 -9 0 -9 8 0 12 -3 8 -6 -14 -14 -26 8 -14 27 7 11 14
14 16 8 2 -6 -3 -15 -10 -20z m-1515 6 c-4 -8 -8 -15 -10 -15 -2 0 -4 7 -4 15
0 8 4 15 10 15 5 0 7 -7 4 -15z m1636 5 c0 -5 -5 -10 -11 -10 -5 0 -7 5 -4 10
3 6 8 10 11 10 2 0 4 -4 4 -10z m109 -48 c1 -7 -3 -10 -9 -7 -5 3 -10 15 -10
26 0 11 -4 17 -10 14 -5 -3 -10 -2 -10 4 0 5 6 11 13 14 11 4 24 -20 26 -51z
m-159 44 c0 -2 -11 -6 -25 -8 -13 -3 -22 -1 -19 3 5 9 44 13 44 5z m-1493 -12
c-3 -3 -12 -4 -19 -1 -8 3 -5 6 6 6 11 1 17 -2 13 -5z m1565 -26 c-7 -7 -12
-8 -12 -2 0 14 12 26 19 19 2 -3 -1 -11 -7 -17z m-1658 -12 c-5 -14 -9 -15
-15 -5 -5 8 -3 17 4 21 15 9 19 4 11 -16z m136 12 c0 -4 -4 -8 -9 -8 -6 0 -12
4 -15 8 -3 5 1 9 9 9 8 0 15 -4 15 -9z m127 -20 c-3 -7 -5 -2 -5 12 0 14 2 19
5 13 2 -7 2 -19 0 -25z m-211 -16 c-22 -23 -29 -10 -9 18 11 16 18 19 21 11 2
-7 -3 -20 -12 -29z m1481 32 c-3 -3 -12 -4 -19 -1 -8 3 -5 6 6 6 11 1 17 -2
13 -5z m-1176 -31 c-8 -15 -10 -15 -11 -2 0 17 10 32 18 25 2 -3 -1 -13 -7
-23z m89 17 c0 -5 -5 -10 -11 -10 -5 0 -7 5 -4 10 3 6 8 10 11 10 2 0 4 -4 4
-10z m-130 -22 c10 -3 6 -6 -11 -10 -22 -4 -25 -2 -21 14 3 11 8 15 11 10 3
-5 13 -11 21 -14z m1080 -1 c11 -5 9 -6 -4 -4 -11 1 -21 9 -23 17 -3 10 -2 11
4 4 4 -6 15 -14 23 -17z m-620 9 c0 -2 -7 -7 -16 -10 -8 -3 -12 -2 -9 4 6 10
25 14 25 6z m344 -10 c-10 -8 -21 -12 -24 -10 -5 6 21 24 34 24 6 0 1 -6 -10
-14z m86 4 c0 -5 -5 -10 -11 -10 -5 0 -7 5 -4 10 3 6 8 10 11 10 2 0 4 -4 4
-10z m110 6 c0 -2 -9 -6 -20 -9 -11 -3 -20 -1 -20 4 0 5 9 9 20 9 11 0 20 -2
20 -4z m40 -16 c0 -5 -5 -10 -11 -10 -5 0 -7 5 -4 10 3 6 8 10 11 10 2 0 4 -4
4 -10z"/>
<path d="M975 4531 c-112 -71 -275 -195 -275 -209 0 -4 77 -20 171 -35 94 -16
199 -38 234 -49 93 -31 98 -26 90 79 -9 115 -61 277 -90 281 -12 2 -67 -27
-130 -67z"/>
<path d="M3060 4183 c-43 -28 -377 -231 -562 -342 -16 -9 -28 -25 -28 -37 0
-25 55 -114 71 -114 14 0 276 157 284 170 10 16 51 11 67 -7 17 -20 58 -97 58
-110 0 -4 -21 -19 -47 -33 -62 -32 -255 -150 -269 -164 -9 -8 -3 -26 23 -68
42 -71 58 -73 139 -19 76 50 412 255 484 294 71 39 90 56 90 79 0 16 -165 297
-215 366 -21 29 -30 28 -95 -15z"/>
<path d="M643 1743 c0 -40 22 -51 23 -12 1 16 -2 26 -7 24 -4 -3 -9 1 -11 7
-3 7 -5 -1 -5 -19z"/>
<path d="M555 1721 c-3 -5 -1 -12 5 -16 5 -3 10 1 10 9 0 18 -6 21 -15 7z"/>
<path d="M650 1681 c0 -6 -8 -11 -17 -12 -10 0 -13 -3 -6 -5 18 -8 49 11 34
20 -6 4 -11 2 -11 -3z"/>
<path d="M570 1669 c0 -5 5 -7 10 -4 6 3 10 8 10 11 0 2 -4 4 -10 4 -5 0 -10
-5 -10 -11z"/>
<path d="M705 1670 c-3 -5 -1 -10 4 -10 6 0 11 5 11 10 0 6 -2 10 -4 10 -3 0
-8 -4 -11 -10z"/>
<path d="M678 1603 c7 -3 16 -2 19 1 4 3 -2 6 -13 5 -11 0 -14 -3 -6 -6z"/>
<path d="M758 1563 c12 -2 30 -2 40 0 9 3 -1 5 -23 4 -22 0 -30 -2 -17 -4z"/>
<path d="M812 1549 c-12 -19 -11 -19 8 -9 11 6 20 15 20 20 0 17 -15 11 -28
-11z"/>
<path d="M846 1543 c-6 -14 -5 -15 5 -6 7 7 10 15 7 18 -3 3 -9 -2 -12 -12z"/>
<path d="M861 1526 c-20 -11 -21 -14 -6 -19 25 -10 43 -7 20 3 -17 7 -17 9 -2
9 9 1 17 6 17 11 0 12 0 12 -29 -4z"/>
<path d="M945 1460 c-3 -5 -2 -10 4 -10 5 0 13 5 16 10 3 6 2 10 -4 10 -5 0
-13 -4 -16 -10z"/>
<path d="M983 1455 c0 -8 4 -12 9 -9 4 3 8 9 8 15 0 5 -4 9 -8 9 -5 0 -9 -7
-9 -15z"/>
<path d="M1066 1462 c-2 -4 -1 -14 3 -21 6 -10 10 -9 14 3 6 16 -8 32 -17 18z"/>
<path d="M928 1433 c7 -3 16 -2 19 1 4 3 -2 6 -13 5 -11 0 -14 -3 -6 -6z"/>
<path d="M1126 1425 c4 -8 7 -15 9 -15 2 0 5 7 9 15 3 9 0 15 -9 15 -9 0 -12
-6 -9 -15z"/>
<path d="M1110 1411 c0 -10 19 -25 25 -20 1 2 -3 10 -11 17 -8 7 -14 8 -14 3z"/>
<path d="M1035 1379 c-4 -6 -5 -12 -2 -15 2 -3 7 2 10 11 7 17 1 20 -8 4z"/>
<path d="M1218 1366 c-20 -14 -25 -31 -7 -20 8 4 9 -1 4 -17 -4 -13 -5 -21 -1
-18 6 6 27 69 23 69 -1 0 -10 -7 -19 -14z"/>
<path d="M1238 1313 c6 -2 18 -2 25 0 6 3 1 5 -13 5 -14 0 -19 -2 -12 -5z"/>
<path d="M1285 1311 c-6 -11 13 -26 22 -17 4 3 0 6 -8 6 -11 0 -11 2 1 10 9 6
10 10 3 10 -6 0 -14 -4 -18 -9z"/>
<path d="M3653 1264 c-38 -16 -40 -20 -13 -27 11 -3 18 -1 15 3 -3 5 7 16 22
24 35 19 19 19 -24 0z"/>
<path d="M1415 1250 c3 -5 8 -10 11 -10 2 0 4 5 4 10 0 6 -5 10 -11 10 -5 0
-7 -4 -4 -10z"/>
<path d="M3680 1250 c-8 -5 -12 -11 -9 -14 2 -3 11 -1 19 4 8 5 12 11 9 14 -2
3 -11 1 -19 -4z"/>
<path d="M1380 1230 c0 -5 5 -10 11 -10 5 0 7 5 4 10 -3 6 -8 10 -11 10 -2 0
-4 -4 -4 -10z"/>
<path d="M1517 1210 c-3 -11 -3 -20 -1 -20 2 0 8 9 14 20 6 11 7 20 2 20 -6 0
-12 -9 -15 -20z"/>
<path d="M3657 1188 c-9 -31 -2 -33 11 -3 6 14 8 25 3 25 -5 0 -11 -10 -14
-22z"/>
<path d="M1600 1184 c0 -3 8 -13 17 -22 16 -16 16 -16 11 0 -4 9 -2 19 5 22 7
2 2 5 -10 5 -13 1 -23 -2 -23 -5z"/>
<path d="M3606 1181 c-3 -5 0 -11 7 -14 8 -3 14 1 14 9 0 16 -13 19 -21 5z"/>
<path d="M1534 1150 c0 -13 4 -16 10 -10 7 7 7 13 0 20 -6 6 -10 3 -10 -10z"/>
<path d="M3537 1153 c4 -11 3 -14 -5 -9 -8 5 -10 2 -6 -9 7 -18 7 -18 23 13
10 18 9 22 -3 22 -10 0 -13 -6 -9 -17z"/>
<path d="M1591 1144 c0 -11 3 -14 6 -6 3 7 2 16 -1 19 -3 4 -6 -2 -5 -13z"/>
<path d="M3591 1144 c0 -11 3 -14 6 -6 3 7 2 16 -1 19 -3 4 -6 -2 -5 -13z"/>
<path d="M1830 1130 c0 -5 5 -10 10 -10 6 0 10 5 10 10 0 6 -4 10 -10 10 -5 0
-10 -4 -10 -10z"/>
<path d="M3340 1125 c-8 -9 -8 -15 -2 -15 12 0 26 19 19 26 -2 2 -10 -2 -17
-11z"/>
<path d="M3370 1120 c0 -5 5 -10 11 -10 5 0 7 5 4 10 -3 6 -8 10 -11 10 -2 0
-4 -4 -4 -10z"/>
</g>
</svg>
